<svg width="64" height="64" viewBox="0 0 64 64" fill="none" xmlns="http://www.w3.org/2000/svg">
<path d="M41.006 4.00391C39.851 4.13297 38.1393 4.91391 37.1954 5.5986C32.3337 9.12486 34.1143 15.1482 33.8266 20.3216C34.0454 21.4033 35.4946 21.4875 35.9365 20.5163C36.4516 16.9233 34.9105 11.5245 37.2971 8.54298C40.8452 4.11109 47.7807 6.35547 48.2149 11.9249L48.2204 37.826C48.3254 38.5643 49.5307 39.307 50.0689 39.9096C55.449 45.9406 52.4325 55.6815 44.5892 57.4928C34.228 59.8859 27.1001 47.4456 34.344 39.6909C34.7771 39.2271 35.8884 38.503 35.978 37.9387L35.9616 29.6601C35.546 28.6462 34.4424 28.5422 33.8835 29.5015C33.679 32.0291 33.8835 34.6115 33.7785 37.1577C27.2368 42.8977 27.7957 53.3332 35.2726 58.0068C36.677 58.8851 38.9246 59.7886 40.5696 59.9723H4V4.00391H41.006ZM17.6457 13.186V10.7261C17.6457 10.3127 16.9172 9.88064 16.5016 9.89814C16.1232 9.91345 15.4625 10.3619 15.4625 10.7261V13.186C15.1497 13.0416 14.978 12.6478 14.6892 12.4849C13.73 11.9402 12.7806 12.7988 13.1099 13.8488C13.2871 14.4131 15.0535 15.706 15.4625 16.3021V22.1504L10.3591 19.2803C9.85267 18.1658 9.98939 15.3024 8.20985 15.5977C7.24188 15.7585 7.41798 16.9999 7.60173 17.6682C6.73001 17.3007 5.35297 15.9061 4.44297 16.745C3.09437 17.9886 5.62204 19.1393 6.51016 19.5275C6.31001 19.8053 5.84079 19.7441 5.53672 19.9169C4.86735 20.2997 4.74156 21.3257 5.42407 21.7632C6.34501 22.3538 8.29188 21.2141 9.35392 21.213L14.1938 23.9988L14.2627 24.2252L9.35501 27.0219C8.2897 27.0154 6.44344 25.9347 5.48969 26.4269C4.79297 26.7868 4.805 27.8794 5.49407 28.2535L6.51235 28.7074C5.61547 29.099 3.09875 30.2474 4.44516 31.4899C5.35516 32.3288 6.73329 30.9332 7.60391 30.5668C7.56782 31.2766 7.18938 31.6244 7.6761 32.2883C8.14313 32.926 9.21501 32.7083 9.54095 32.0138C9.92595 31.1957 10.0145 29.834 10.3613 28.9546L15.4647 26.0846V31.9329C14.8478 32.8123 12.33 34.2473 13.2291 35.4832C13.9105 36.4205 14.9102 35.6669 15.4647 35.0479V37.5077C15.4647 37.9212 16.1932 38.3532 16.6088 38.3357C16.9872 38.3204 17.6478 37.872 17.6478 37.5077V35.0479C17.9607 35.1923 18.1324 35.586 18.4211 35.749C19.3803 36.2937 20.3297 35.4351 20.0005 34.3851C19.8233 33.8207 18.0569 32.5279 17.6478 31.9318V26.0835L22.7546 28.9502C23.1811 29.9958 23.1855 33.1688 24.9683 32.5935C26.0807 32.2348 25.4288 30.7527 25.5086 30.6751C26.5543 30.8457 27.7465 32.541 28.7308 31.3335C29.8213 29.9958 27.4905 29.2051 26.6002 28.7052L27.6185 28.2513C28.2922 27.8991 28.2572 26.7824 27.624 26.4236C26.7479 25.926 24.7594 27.0066 23.7565 27.0208L18.8488 24.223L18.9166 23.9977L23.7565 21.2119C24.7365 21.2196 26.8715 22.3604 27.6885 21.7643C28.2693 21.3399 28.266 20.3424 27.6174 19.9804L26.5991 19.5264C27.5616 19.1458 30.2216 17.748 28.4487 16.6335C27.4501 16.0057 26.4635 17.4199 25.5065 17.5566C25.9243 16.523 25.3796 15.1569 24.1141 15.6732C23.261 16.021 23.0685 18.4568 22.7524 19.2825L17.6457 22.1493V16.301C18.2625 15.4216 20.7804 13.9866 19.8813 12.7506C19.1999 11.8133 18.2002 12.5669 17.6457 13.186ZM34.6448 23.92C33.3837 24.199 33.5379 26.4543 35.2529 26.0616C36.4899 25.7783 36.1049 23.5974 34.6448 23.92ZM38.5866 39.8418C32.8007 42.5368 32.4594 50.8307 38.0255 54.0486C44.5651 57.8286 52.1339 51.5384 49.7429 44.3918C49.0396 42.2896 47.446 40.812 45.6096 39.6766C45.3296 37.6991 46.1685 34.5382 44.984 32.8691C43.1202 30.2419 38.9541 31.3401 38.6184 34.5699C38.5374 35.3465 38.7266 39.6176 38.5877 39.8407L38.5866 39.8418Z" fill="#FDFDFD"/>
<path d="M43.1885 4.00219H59.9995V16.355C59.703 15.935 59.3716 15.6714 58.8434 15.5992C57.8863 15.4691 55.2493 15.4833 54.2682 15.5894C52.5587 15.7732 52.6199 17.7091 54.1599 17.8852C55.1366 17.9968 58.0012 18.0099 58.9527 17.8753C59.4887 17.7999 59.6866 17.51 59.9995 17.1196V26.8485C59.703 26.4285 59.3716 26.1649 58.8434 26.0927C57.8863 25.9626 55.2493 25.9768 54.2682 26.0829C52.5587 26.2666 52.6199 28.2026 54.1599 28.3787C55.1366 28.4902 58.0012 28.5033 58.9527 28.3688C59.4887 28.2933 59.6866 28.0035 59.9995 27.613V59.9695H43.4072C44.3369 59.7518 45.2797 59.6108 46.193 59.3154C50.066 58.0631 53.3243 54.6659 54.4618 50.7612C55.969 45.5867 54.1883 40.6429 50.3963 37.0652L50.3985 11.5939C50.113 8.58064 48.1366 5.79922 45.3377 4.63656C44.6377 4.34563 43.9049 4.22641 43.1896 4L43.1885 4.00219ZM54.0768 10.3689C52.8802 10.5702 52.5882 11.9953 53.6393 12.5039C54.033 12.6942 55.958 12.7063 56.4459 12.6308C57.5287 12.4635 57.9038 11.0656 56.9107 10.5395C56.3966 10.2672 54.6783 10.2672 54.0779 10.3689H54.0768ZM54.0768 20.8624C52.8802 21.0636 52.5882 22.4888 53.6393 22.9974C54.033 23.1877 55.958 23.1997 56.4459 23.1243C57.5287 22.9569 57.9038 21.5591 56.9107 21.033C56.3966 20.7607 54.6783 20.7607 54.0779 20.8624H54.0768ZM54.0768 31.3569C52.8802 31.5582 52.5882 32.9833 53.6393 33.4919C54.033 33.6823 55.958 33.6943 56.4459 33.6188C57.5287 33.4515 57.9038 32.0537 56.9107 31.5276C56.3966 31.2552 54.6783 31.2552 54.0779 31.3569H54.0768Z" fill="#FDFDFD"/>
<path d="M43.1887 4.00391C43.904 4.22922 44.6379 4.34953 45.3368 4.64047C48.1357 5.80204 50.1121 8.58345 50.3976 11.5978L50.3954 37.0691C54.1875 40.6468 55.9681 45.5906 54.4609 50.7651C53.3234 54.6698 50.0651 58.0681 46.1921 59.3193C45.2789 59.6147 44.336 59.7558 43.4063 59.9734C42.5007 59.9001 41.454 60.0729 40.5681 59.9734C38.9241 59.7897 36.6754 58.8862 35.271 58.0079C27.7941 53.3343 27.2363 42.8988 33.7769 37.1588C33.8819 34.6126 33.6774 32.0302 33.8819 29.5026C34.4398 28.5433 35.5434 28.6483 35.9601 29.6612L35.9765 37.9398C35.8868 38.5041 34.7755 39.2282 34.3424 39.692C27.0985 47.4467 34.2265 59.887 44.5876 57.4939C52.4309 55.6826 55.4486 45.9406 50.0673 39.9107C49.5292 39.3081 48.3228 38.5643 48.2189 37.8271L48.2134 11.926C47.7792 6.35657 40.8437 4.11219 37.2956 8.54407C34.9079 11.5256 36.449 16.9244 35.9349 20.5174C35.493 21.4886 34.0449 21.4044 33.8251 20.3227C34.1127 15.1503 32.3321 9.12704 37.1938 5.59969C38.1377 4.915 39.8495 4.13406 41.0045 4.005H43.1876L43.1887 4.00391Z" fill="#17255C"/>
<path d="M59.9997 16.3595V17.1252C59.6858 17.5145 59.4889 17.8044 58.953 17.8809C58.0014 18.0155 55.1369 18.0023 54.1602 17.8908C52.6213 17.7147 52.5589 15.7787 54.2685 15.595C55.2496 15.49 57.8866 15.4747 58.8436 15.6048C59.3719 15.677 59.7033 15.9406 59.9997 16.3606V16.3595Z" fill="#17255C"/>
<path d="M59.9997 26.8517V27.6173C59.6858 28.0067 59.4889 28.2966 58.953 28.3731C58.0014 28.5077 55.1369 28.4945 54.1602 28.383C52.6213 28.2069 52.5589 26.2709 54.2685 26.0872C55.2496 25.9822 57.8866 25.9669 58.8436 26.097C59.3719 26.1692 59.7033 26.4328 59.9997 26.8528V26.8517Z" fill="#17255C"/>
<path d="M17.6456 13.1829C18.2001 12.5638 19.1998 11.8102 19.8812 12.7476C20.7792 13.9835 18.2614 15.4185 17.6456 16.2979V22.1462L22.7523 19.2794C23.0684 18.4537 23.2609 16.0179 24.1141 15.6701C25.3795 15.1538 25.9231 16.5199 25.5064 17.5535C26.4634 17.4168 27.45 16.0026 28.4486 16.6304C30.2216 17.7449 27.5616 19.1416 26.5991 19.5233L27.6173 19.9773C28.2659 20.3393 28.2692 21.3368 27.6884 21.7612C26.8714 22.3573 24.7364 21.2165 23.7564 21.2088L18.9165 23.9946L18.8487 24.2199L23.7564 27.0177C24.7594 27.0046 26.7467 25.9229 27.6239 26.4206C28.2561 26.7804 28.2922 27.8971 27.6184 28.2482L26.6002 28.7021C27.4905 29.202 29.8223 29.9917 28.7308 31.3304C27.7464 32.5379 26.5531 30.8426 25.5086 30.672C25.4298 30.7485 26.0806 32.2317 24.9683 32.5904C23.1855 33.1657 23.1811 29.9928 22.7545 28.9471L17.6478 26.0804V31.9287C18.0569 32.5248 19.8233 33.8176 20.0005 34.382C20.3297 35.4309 19.3803 36.2906 18.4211 35.7459C18.1334 35.5818 17.9606 35.1892 17.6478 35.0448V37.5046C17.6478 37.8689 16.9872 38.3162 16.6087 38.3326C16.1942 38.3501 15.4647 37.9181 15.4647 37.5046V35.0448C14.9101 35.6639 13.9104 36.4175 13.229 35.4801C12.3311 34.2442 14.8489 32.8092 15.4647 31.9298V26.0815L10.3612 28.9515C10.0145 29.8309 9.9248 31.1915 9.5409 32.0107C9.21496 32.7053 8.14308 32.9229 7.67605 32.2853C7.18933 31.6213 7.56777 31.2746 7.60386 30.5637C6.73323 30.9301 5.35511 32.3257 4.4451 31.4868C3.09869 30.2443 5.61542 29.0959 6.5123 28.7043L5.49401 28.2504C4.80604 27.8763 4.79292 26.7837 5.48964 26.4238C6.44339 25.9316 8.29074 27.0123 9.35496 27.0188L14.2626 24.2221L14.1937 23.9957L9.35386 21.2099C8.29183 21.211 6.34605 22.3507 5.42401 21.7601C4.7426 21.3237 4.86729 20.2966 5.53667 19.9138C5.84073 19.7399 6.30995 19.8023 6.51011 19.5244C5.62198 19.1362 3.09432 17.9855 4.44292 16.7419C5.35292 15.903 6.72886 17.2976 7.60167 17.6651C7.41683 16.9968 7.24074 15.7554 8.2098 15.5946C9.98934 15.2993 9.85262 18.1627 10.359 19.2773L15.4625 22.1473V16.299C15.0534 15.7029 13.287 14.4101 13.1098 13.8457C12.7806 12.7968 13.73 11.9371 14.6892 12.4818C14.9768 12.6458 15.1497 13.0385 15.4625 13.1829V10.723C15.4625 10.3588 16.1231 9.91145 16.5015 9.89505C16.9161 9.87755 17.6456 10.3096 17.6456 10.723V13.1829Z" fill="#17255C"/>
<path d="M38.5864 39.8388C38.7264 39.6157 38.5372 35.3446 38.617 34.568C38.9528 31.3382 43.1189 30.24 44.9827 32.8672C46.1672 34.5363 45.3283 37.6972 45.6083 39.6748C47.4458 40.809 49.0383 42.2877 49.7416 44.3899C52.1325 51.5365 44.5638 57.8267 38.0242 54.0467C32.4581 50.8288 32.7994 42.5349 38.5853 39.8399L38.5864 39.8388ZM41.7397 33.6504C41.1808 33.7663 40.8702 34.2399 40.7969 34.7824C40.5453 36.6461 41.0069 38.9332 40.7356 40.8429C40.5617 41.5133 39.5664 41.7201 39.0075 42.0646C33.3287 45.5602 37.03 54.4568 43.6713 52.7473C48.5669 51.4873 49.5535 44.7684 45.2758 42.0832C44.4861 41.5877 43.5006 41.5451 43.4011 40.4623C43.2425 38.7374 43.7008 36.1529 43.3814 34.579C43.2195 33.7838 42.4911 33.495 41.7386 33.6504H41.7397Z" fill="#17255C"/>
<path d="M34.6448 23.9153C36.1049 23.5926 36.4899 25.7736 35.2529 26.0569C33.5379 26.4495 33.3837 24.1942 34.6448 23.9153Z" fill="#17255C"/>
<path d="M54.0771 10.3706C54.6775 10.27 56.3958 10.2689 56.9099 10.5413C57.903 11.0674 57.5278 12.4652 56.445 12.6325C55.9583 12.708 54.0333 12.696 53.6385 12.5057C52.5885 11.9971 52.8805 10.5719 54.076 10.3706H54.0771Z" fill="#17255C"/>
<path d="M54.0771 20.8628C54.6775 20.7622 56.3958 20.7611 56.9099 21.0335C57.903 21.5596 57.5278 22.9574 56.445 23.1247C55.9583 23.2002 54.0333 23.1882 53.6385 22.9978C52.5885 22.4892 52.8805 21.0641 54.076 20.8628H54.0771Z" fill="#17255C"/>
<path d="M54.0771 31.3589C54.6775 31.2583 56.3958 31.2572 56.9099 31.5296C57.903 32.0556 57.5278 33.4535 56.445 33.6208C55.9583 33.6963 54.0333 33.6842 53.6385 33.4939C52.5885 32.9853 52.8805 31.5602 54.076 31.3589H54.0771Z" fill="#17255C"/>
<path d="M41.7398 33.6498C42.4924 33.4945 43.2208 33.7832 43.3827 34.5784C43.702 36.1523 43.2438 38.7368 43.4024 40.4617C43.5019 41.5434 44.4885 41.5872 45.277 42.0826C49.5536 44.7678 48.5681 51.4867 43.6725 52.7467C37.0302 54.4552 33.33 45.5597 39.0087 42.064C39.5677 41.7206 40.563 41.5128 40.7369 40.8423C41.0081 38.9337 40.5466 36.6467 40.7981 34.7818C40.8714 34.2393 41.182 33.7657 41.7409 33.6498H41.7398Z" fill="#A6C4DB"/>
</svg>
