<svg width="56" height="56" viewBox="0 0 56 56" fill="none" xmlns="http://www.w3.org/2000/svg">
<path d="M28.3125 37.375V41.75" stroke="#17255C" stroke-width="4" stroke-linecap="round" stroke-linejoin="round"/>
<path d="M17.8965 48.8281H38.7298V46.7448C38.7298 44.4531 36.8548 42.5781 34.5632 42.5781H22.0632C19.7715 42.5781 17.8965 44.4531 17.8965 46.7448V48.8281V48.8281Z" stroke="#17255C" stroke-width="4" stroke-miterlimit="10"/>
<path d="M15.8125 48.8281H40.8125" stroke="#17255C" stroke-width="4" stroke-linecap="round" stroke-linejoin="round"/>
<path d="M28.0013 36.3385C19.9388 36.3385 13.418 29.8177 13.418 21.7552V15.5052C13.418 10.901 17.1471 7.17188 21.7513 7.17188H34.2513C38.8555 7.17188 42.5846 10.901 42.5846 15.5052V21.7552C42.5846 29.8177 36.0638 36.3385 28.0013 36.3385Z" stroke="#A6C4DB" stroke-width="4" stroke-linecap="round" stroke-linejoin="round"/>
<path d="M14.3958 27.2708C12.8333 26.7708 11.4583 25.8542 10.375 24.7708C8.5 22.6875 7.25 20.1875 7.25 17.2708C7.25 14.3542 9.54167 12.0625 12.4583 12.0625H13.8125C13.3958 13.0208 13.1875 14.0833 13.1875 15.1875V21.4375C13.1875 23.5208 13.625 25.4792 14.3958 27.2708Z" stroke="#17255C" stroke-width="4" stroke-linecap="round" stroke-linejoin="round"/>
<path d="M41.6035 27.2708C43.166 26.7708 44.541 25.8542 45.6243 24.7708C47.4993 22.6875 48.7493 20.1875 48.7493 17.2708C48.7493 14.3542 46.4577 12.0625 43.541 12.0625H42.1868C42.6035 13.0208 42.8118 14.0833 42.8118 15.1875V21.4375C42.8118 23.5208 42.3743 25.4792 41.6035 27.2708Z" stroke="#17255C" stroke-width="4" stroke-linecap="round" stroke-linejoin="round"/>
</svg>
