<svg width="64" height="64" viewBox="0 0 64 64" fill="none" xmlns="http://www.w3.org/2000/svg">
<path d="M44.3323 0C43.1923 0.499883 42.2817 1.62545 41.5747 2.6319C38.8862 6.45617 38.2761 11.3492 39.11 15.8894C34.1571 14.9074 28.6465 15.7947 24.7756 19.1659C20.2202 23.1338 18.8932 29.3083 19.9998 35.112C15.0625 34.1724 7.92313 34.9929 4.60895 39.3315C3.27193 41.0817 4.96965 43.3673 6.87666 42.5991C7.24738 42.45 7.86746 41.9345 8.22259 41.6673L19.2227 52.7794C19.0156 53.0243 18.5035 53.817 18.3911 54.1143C17.6575 56.0537 19.9152 57.7749 21.6685 56.391C24.3359 54.2857 26.0592 49.6643 26.322 46.3778C26.4667 44.5675 26.2396 42.7773 26.0002 41.0004C37.302 43.1903 46.1191 35.8157 45.4489 24.2727C45.4043 23.4956 45.2195 22.6606 45.1104 21.888C49.5267 22.7374 54.1779 22.1574 57.9897 19.7114C59.1019 18.9978 60.3554 17.9201 61 16.7767V57H4V0H44.3323Z" fill="#FEFEFE"/>
<path d="M45 0H61V16C60.5371 14.7914 59.3156 14.0797 58.0714 14.5822C57.8219 14.6834 57.0632 15.2394 56.8318 15.4327L45.5634 4.19868C45.7779 3.9224 46.278 3.33916 46.4158 3.07084C47.1191 1.6963 46.2893 0.512755 45 0Z" fill="#FEFEFE"/>
<path d="M45.3725 0C46.627 0.495604 47.4345 1.63846 46.7501 2.96813C46.6161 3.22747 46.1305 3.79121 45.9207 4.05824C45.5065 4.58791 45.322 4.77473 44.9342 5.37473C43.929 6.92637 43.5951 7.7978 43.2897 9.65165C43.16 10.4374 43.0787 11.0418 43.07 11.8451C43.0502 13.6637 43.3545 15.2593 43.8378 17C42.3328 16.5703 40.886 15.9901 39.3426 15.6835C38.5198 11.2022 39.1218 6.37143 41.7748 2.5978C42.4723 1.60549 43.371 0.493407 44.4959 0H45.3725Z" fill="#A6C4DB"/>
<path d="M61 15.5325V16.6328C60.3612 17.7651 59.1177 18.8335 58.0165 19.5391C54.2387 21.9614 49.6289 22.5369 45.2519 21.6946C43.9323 21.441 42.6833 20.9559 41.3979 20.5942C41.1861 20.5347 40.9698 20.4399 40.737 20.3748C38.3218 19.6946 36.3446 19.3076 33.8003 19.6042C33.0632 19.6902 32.5954 19.8577 31.9279 20.0441C30.0908 20.5579 29.3372 20.925 27.8532 22.1356C27.2596 22.6196 27.2398 22.656 26.7521 23.2359C25.5384 24.6802 25.1577 25.4002 24.6601 27.1973C24.4869 27.8203 24.1945 28.5171 24.1096 29.1775C23.9474 30.4355 24.0941 32.699 24.3357 33.9581C24.4582 34.5921 24.8742 35.3153 24.8797 36C23.2644 35.5204 22.0397 35.108 20.3648 34.7894C19.2692 29.0408 20.5833 22.9261 25.0993 18.9978C28.9356 15.6593 34.3972 14.7806 39.306 15.753C40.8562 16.0606 42.3093 16.6427 43.8209 17.0738C44.0051 17.1257 44.2247 17.2558 44.3714 17.2932C45.7727 17.6571 47.6627 17.947 49.107 17.9537C49.8154 17.957 50.5038 17.8456 51.199 17.7343C53.0062 17.441 54.071 17.0529 55.6035 16.0827C56.3372 15.6196 56.4189 15.4013 56.9253 14.9823C57.1515 14.7949 57.893 14.2558 58.1368 14.1576C59.3538 13.6714 60.5465 14.3605 61 15.5325Z" fill="#17255C"/>
<path d="M25.6822 41.2644C24.4868 41.0327 23.3246 40.6035 22.1568 40.2735C21.8323 40.1808 21.5222 40.0451 21.1657 39.9425C19.3522 39.4227 17.7915 39.0575 15.8777 39.0619C15.1249 39.063 14.5178 39.1711 13.785 39.2815C11.7938 39.5827 11.0488 39.8531 9.37884 40.9345C8.79054 41.3152 8.56538 41.5425 8.05656 41.9254C7.70446 42.1903 7.08968 42.7001 6.72214 42.848C4.83143 43.6105 3.14823 41.345 4.47382 39.6103C7.75965 35.3089 14.839 34.4957 19.733 35.427C21.4085 35.7459 22.6336 36.1586 24.2495 36.6386C24.5232 36.7203 24.8742 36.9035 25.1314 36.9697C27.1082 37.4784 29.1733 37.6307 31.1898 37.41C32.0231 37.3184 32.405 37.1915 33.1732 36.9697C35.1224 36.4047 35.533 36.0979 37.0286 34.8764C37.2791 34.6722 37.5893 34.6391 37.9668 34.2187C38.1621 34.0013 38.1864 33.7309 38.2405 33.6647C39.4612 32.1706 39.7692 31.759 40.3332 29.8102C40.555 29.0433 40.6842 28.6615 40.7736 27.8284C41.033 25.4195 40.7261 23.325 40.1124 21C40.3453 21.0651 40.5617 21.16 40.7736 21.2196C42.0594 21.5815 43.3089 22.0671 44.6289 22.3209C44.7371 23.0867 44.9203 23.9154 44.9645 24.6845C45.6289 36.1255 36.8873 43.435 25.6822 41.2644Z" fill="#A6C4DB"/>
<path d="M22.1342 40.3286C23.2938 40.6571 24.4501 41.0846 25.6382 41.3153C25.8741 43.0691 26.0979 44.8361 25.9553 46.6229C25.6964 49.8667 23.997 54.4282 21.3695 56.5061C19.6427 57.8709 17.4179 56.1732 18.1398 54.2589C18.2506 53.9655 18.7552 53.1831 18.9593 52.9414C19.4266 52.3876 19.5638 52.3942 20.0541 51.6249C21.0832 50.0129 21.3926 49.147 21.6965 47.2383C21.8128 46.5086 21.9137 45.902 21.9159 45.1548C21.9192 43.3779 21.5363 41.7153 21.149 40C21.5034 40.1022 21.8117 40.2374 22.1342 40.3286Z" fill="#17255C"/>
<path d="M9.32145 41L20 51.6786C19.5069 52.4496 19.3691 52.4441 18.8992 53L8 41.9905C8.5085 41.6078 8.73352 41.3805 9.32145 41Z" fill="#17255C"/>
<path d="M57 14.8992C56.4937 15.3183 56.4121 15.5356 55.6786 16L45 5.32145C45.3894 4.72029 45.5747 4.53167 45.9905 4L57 14.8992Z" fill="#17255C"/>
<path d="M43.2156 10L51 17.7862C50.3175 17.8952 49.6416 18.0021 48.9461 18L43 12.1341C43.0087 11.3529 43.0888 10.7652 43.2167 10.0011L43.2156 10Z" fill="#17255C"/>
<path d="M39 33.7011C38.942 33.7721 38.9159 34.0622 38.7075 34.2943C38.3014 34.7454 37.9699 34.7809 37.6999 35L26 23.1817C26.5222 22.5589 26.5447 22.5198 27.1817 22L39 33.6999V33.7011Z" fill="#17255C"/>
<path d="M24.5671 27L34 36.5405C33.2075 36.7731 32.8146 36.9056 31.9549 37L24 29.0684C24.0877 28.3786 24.3894 27.6507 24.5682 27H24.5671Z" fill="#17255C"/>
<path d="M33.7784 20L41 27.1384C40.9151 27.921 40.7924 28.2807 40.5816 29L32 20.4136C32.6344 20.2384 33.079 20.0808 33.7794 20H33.7784Z" fill="#17255C"/>
<path d="M16.0547 39.0011L22 44.9464C21.9989 45.684 21.8982 46.2808 21.7834 47L14 39.2166C14.7192 39.1083 15.3149 39.0022 16.0536 39L16.0547 39.0011Z" fill="#17255C"/>
</svg>
