<svg width="37" height="46" viewBox="0 0 37 46" fill="none" xmlns="http://www.w3.org/2000/svg">
<g clip-path="url(#clip0_9456_100)">
<path d="M0 8.7183V0.0195081H37V46.0003H32.8674C34.9833 45.7627 36.7389 43.8288 36.9027 41.7453L36.9075 9.04988C36.5375 5.67176 33.8001 4.34063 30.6088 4.70384C29.1905 4.86484 28.674 6.68759 29.9132 7.4993C31.0877 8.26788 33.5187 6.93292 33.829 9.14859V41.5556C33.7586 42.2906 33.1747 42.8714 32.4357 42.9413L4.56141 42.9452C3.74818 42.9203 3.09586 42.2705 3.07177 41.4636L3.0843 9.06138C3.48128 6.5678 7.23716 8.91955 7.66594 6.54576C8.02437 4.56201 5.70802 4.60034 4.3687 4.70001C2.07643 4.87059 0.39987 6.50072 0 8.7183ZM11.4151 0.142175C10.0767 0.3003 9.34828 1.14459 9.22784 2.45942C9.08909 3.96688 9.08234 7.06709 9.23844 8.56401C9.39453 10.0609 10.2665 10.7155 11.6743 10.8257C16.0786 10.5612 20.8742 11.1659 25.2323 10.8257C26.7595 10.7068 27.5631 9.90759 27.6826 8.38767C27.8049 6.83613 27.8184 3.99755 27.6777 2.45847C27.5428 0.989341 26.693 0.22555 25.2323 0.111508C20.8009 -0.23445 15.8955 0.354925 11.417 0.141216L11.4151 0.142175ZM8.9118 16.9619C7.26607 17.2599 7.3181 19.7545 8.9937 19.9902C9.49281 20.0602 10.9198 20.0535 11.363 19.8781C12.7881 19.3146 12.501 17.1603 10.9959 16.9485C10.5691 16.8881 9.32805 16.8871 8.91276 16.9619H8.9118ZM16.5999 16.9619C14.9243 17.4449 14.9879 19.6011 16.6818 19.9902H27.909C29.6443 19.5915 29.652 17.3519 27.909 16.9475L16.5989 16.9609L16.5999 16.9619ZM9.10643 23.561C7.27089 23.8236 7.21211 26.2117 8.9831 26.597H27.9196C29.811 26.1513 29.5403 23.6712 27.6276 23.537L9.10547 23.561H9.10643ZM8.81544 30.2492C7.08299 30.8865 7.45107 33.151 9.27505 33.2852H27.6286C29.5403 33.152 29.812 30.6708 27.9205 30.2252L8.81544 30.2492ZM8.9118 36.8454C7.18802 37.3428 7.32581 39.5881 9.08138 39.8823H27.8223C29.6742 39.569 29.679 37.1396 27.8223 36.8233L8.9118 36.8454Z" fill="white"/>
<path d="M32.8674 45.9987H4.03628C1.92612 45.624 0.367109 44.0897 0 41.9833V8.71668C0.39987 6.4991 2.07643 4.86898 4.3687 4.69839C5.70706 4.59873 8.02341 4.56039 7.66594 6.54414C7.23716 8.91793 3.48128 6.56618 3.0843 9.05977L3.07177 41.462C3.09586 42.2689 3.74818 42.9186 4.56141 42.9436L32.4357 42.9397C33.1747 42.8698 33.7586 42.289 33.829 41.554V9.14698C33.5187 6.93035 31.0877 8.26627 29.9132 7.49768C28.674 6.68598 29.1905 4.86323 30.6088 4.70223C33.7991 4.33998 36.5375 5.6711 36.9075 9.04827L36.9027 41.7437C36.7398 43.8281 34.9833 45.762 32.8674 45.9987Z" fill="#17255C"/>
<path d="M4.03628 45.9998H0V41.9844C0.367109 44.0898 1.92612 45.6241 4.03628 45.9998Z" fill="white"/>
<path d="M11.4152 0.141216C15.8947 0.354925 20.8001 -0.23445 25.2304 0.111508C26.6912 0.22555 27.541 0.989341 27.6759 2.45847C27.8175 3.99755 27.8031 6.83613 27.6807 8.38767C27.5612 9.90759 26.7576 10.7059 25.2304 10.8257C20.8723 11.1659 16.0768 10.5612 11.6724 10.8257C10.2647 10.7155 9.38595 9.99097 9.2366 8.56401C9.08051 7.06709 9.08822 3.96688 9.226 2.45942C9.34644 1.14459 10.0749 0.3003 11.4132 0.142175L11.4152 0.141216ZM22.6472 4.35309C22.4323 4.12788 22.0787 3.97072 21.7675 3.93717C19.6544 3.71005 17.1232 4.08763 14.9668 3.95922C13.3818 4.38951 13.4579 6.61763 15.0468 6.98947L21.938 6.97317C23.1 6.69334 23.4479 5.19067 22.6472 4.35213V4.35309Z" fill="#A6C4DB"/>
<path d="M8.91196 36.8463L27.8224 36.8242C29.6792 37.1405 29.6744 39.5698 27.8224 39.8832H9.08154C7.32597 39.589 7.18818 37.3436 8.91196 36.8463Z" fill="#17255C"/>
<path d="M9.10639 23.563L27.6285 23.5391C29.5412 23.6732 29.811 26.1534 27.9205 26.599H8.98305C7.21206 26.2128 7.27084 23.8246 9.10639 23.563Z" fill="#17255C"/>
<path d="M8.81515 30.2505L27.9203 30.2266C29.8117 30.6722 29.5409 33.1533 27.6283 33.2865H9.27476C7.45078 33.1524 7.0827 30.8878 8.81515 30.2505Z" fill="#17255C"/>
<path d="M16.6002 16.9626L27.9102 16.9492C29.6533 17.3527 29.6456 19.5923 27.9102 19.9919H16.683C14.9891 19.6028 14.9255 17.4466 16.6011 16.9636L16.6002 16.9626Z" fill="#17255C"/>
<path d="M8.91207 16.9602C9.32736 16.8845 10.5694 16.8864 10.9952 16.9468C12.5013 17.1595 12.7874 19.3129 11.3624 19.8764C10.9191 20.0518 9.49212 20.0594 8.99301 19.9885C7.31741 19.7518 7.26538 17.2582 8.91111 16.9602H8.91207Z" fill="#17255C"/>
<path d="M22.6468 4.35263C23.4465 5.19117 23.0996 6.69288 21.9376 6.97367L15.0464 6.98996C13.4575 6.61717 13.3814 4.38905 14.9664 3.95972C17.1237 4.08813 19.654 3.71055 21.7671 3.93767C22.0783 3.97122 22.4319 4.12838 22.6468 4.35359V4.35263Z" fill="white"/>
</g>
<defs>
<clipPath id="clip0_9456_100">
<rect width="37" height="46" fill="white"/>
</clipPath>
</defs>
</svg>
